<mxfile host="Electron" agent="Mozilla/5.0 (Windows NT 10.0; Win64; x64) AppleWebKit/537.36 (KHTML, like Gecko) draw.io/28.1.2 Chrome/138.0.7204.243 Electron/37.4.0 Safari/537.36" version="28.1.2">
  <diagram name="Page-1" id="Y1FJEJokx5Ebjodc1AYE">
    <mxGraphModel dx="786" dy="516" grid="1" gridSize="10" guides="1" tooltips="1" connect="1" arrows="1" fold="1" page="1" pageScale="1" pageWidth="827" pageHeight="1169" math="0" shadow="0">
      <root>
        <mxCell id="0" />
        <mxCell id="1" parent="0" />
        <mxCell id="-UVQ3jbvvW3Y9o4Z8ey6-5" value="" style="edgeStyle=orthogonalEdgeStyle;rounded=0;orthogonalLoop=1;jettySize=auto;html=1;" edge="1" parent="1" source="-UVQ3jbvvW3Y9o4Z8ey6-1" target="-UVQ3jbvvW3Y9o4Z8ey6-4">
          <mxGeometry relative="1" as="geometry" />
        </mxCell>
        <mxCell id="-UVQ3jbvvW3Y9o4Z8ey6-1" value="Mulai" style="ellipse;whiteSpace=wrap;html=1;" vertex="1" parent="1">
          <mxGeometry x="60" y="70" width="120" height="50" as="geometry" />
        </mxCell>
        <mxCell id="-UVQ3jbvvW3Y9o4Z8ey6-12" value="" style="edgeStyle=orthogonalEdgeStyle;rounded=0;orthogonalLoop=1;jettySize=auto;html=1;" edge="1" parent="1" source="-UVQ3jbvvW3Y9o4Z8ey6-4" target="-UVQ3jbvvW3Y9o4Z8ey6-11">
          <mxGeometry relative="1" as="geometry" />
        </mxCell>
        <mxCell id="-UVQ3jbvvW3Y9o4Z8ey6-4" value="Data calon penerima beasiswa" style="shape=parallelogram;perimeter=parallelogramPerimeter;whiteSpace=wrap;html=1;fixedSize=1;" vertex="1" parent="1">
          <mxGeometry x="20" y="160" width="200" height="40" as="geometry" />
        </mxCell>
        <mxCell id="-UVQ3jbvvW3Y9o4Z8ey6-14" value="" style="edgeStyle=orthogonalEdgeStyle;rounded=0;orthogonalLoop=1;jettySize=auto;html=1;" edge="1" parent="1" source="-UVQ3jbvvW3Y9o4Z8ey6-11" target="-UVQ3jbvvW3Y9o4Z8ey6-13">
          <mxGeometry relative="1" as="geometry" />
        </mxCell>
        <mxCell id="-UVQ3jbvvW3Y9o4Z8ey6-11" value="Dokumen lengkap?" style="rhombus;whiteSpace=wrap;html=1;" vertex="1" parent="1">
          <mxGeometry x="270" y="140" width="120" height="80" as="geometry" />
        </mxCell>
        <mxCell id="-UVQ3jbvvW3Y9o4Z8ey6-16" value="" style="edgeStyle=orthogonalEdgeStyle;rounded=0;orthogonalLoop=1;jettySize=auto;html=1;" edge="1" parent="1" source="-UVQ3jbvvW3Y9o4Z8ey6-13" target="-UVQ3jbvvW3Y9o4Z8ey6-15">
          <mxGeometry relative="1" as="geometry" />
        </mxCell>
        <mxCell id="-UVQ3jbvvW3Y9o4Z8ey6-23" value="" style="edgeStyle=orthogonalEdgeStyle;rounded=0;orthogonalLoop=1;jettySize=auto;html=1;" edge="1" parent="1" source="-UVQ3jbvvW3Y9o4Z8ey6-13" target="-UVQ3jbvvW3Y9o4Z8ey6-22">
          <mxGeometry relative="1" as="geometry" />
        </mxCell>
        <mxCell id="-UVQ3jbvvW3Y9o4Z8ey6-13" value="Lolos seleksi?" style="rhombus;whiteSpace=wrap;html=1;" vertex="1" parent="1">
          <mxGeometry x="460" y="140" width="130" height="80" as="geometry" />
        </mxCell>
        <mxCell id="-UVQ3jbvvW3Y9o4Z8ey6-19" value="" style="edgeStyle=orthogonalEdgeStyle;rounded=0;orthogonalLoop=1;jettySize=auto;html=1;" edge="1" parent="1" source="-UVQ3jbvvW3Y9o4Z8ey6-15" target="-UVQ3jbvvW3Y9o4Z8ey6-18">
          <mxGeometry relative="1" as="geometry" />
        </mxCell>
        <mxCell id="-UVQ3jbvvW3Y9o4Z8ey6-15" value="IPK memenuhi syarat" style="rhombus;whiteSpace=wrap;html=1;" vertex="1" parent="1">
          <mxGeometry x="650" y="140" width="130" height="80" as="geometry" />
        </mxCell>
        <mxCell id="-UVQ3jbvvW3Y9o4Z8ey6-18" value="Proses dibatalkan" style="shape=parallelogram;perimeter=parallelogramPerimeter;whiteSpace=wrap;html=1;fixedSize=1;" vertex="1" parent="1">
          <mxGeometry x="850" y="155" width="175" height="50" as="geometry" />
        </mxCell>
        <mxCell id="-UVQ3jbvvW3Y9o4Z8ey6-30" value="" style="edgeStyle=orthogonalEdgeStyle;rounded=0;orthogonalLoop=1;jettySize=auto;html=1;" edge="1" parent="1" source="-UVQ3jbvvW3Y9o4Z8ey6-22" target="-UVQ3jbvvW3Y9o4Z8ey6-29">
          <mxGeometry relative="1" as="geometry" />
        </mxCell>
        <mxCell id="-UVQ3jbvvW3Y9o4Z8ey6-22" value="ditetapkan sebagai penerima beasiswa" style="shape=parallelogram;perimeter=parallelogramPerimeter;whiteSpace=wrap;html=1;fixedSize=1;" vertex="1" parent="1">
          <mxGeometry x="432.5" y="310" width="185" height="60" as="geometry" />
        </mxCell>
        <mxCell id="-UVQ3jbvvW3Y9o4Z8ey6-24" value="" style="endArrow=classic;html=1;rounded=0;" edge="1" parent="1">
          <mxGeometry width="50" height="50" relative="1" as="geometry">
            <mxPoint x="330" y="340" as="sourcePoint" />
            <mxPoint x="440" y="339.5" as="targetPoint" />
          </mxGeometry>
        </mxCell>
        <mxCell id="-UVQ3jbvvW3Y9o4Z8ey6-26" value="" style="endArrow=none;html=1;rounded=0;" edge="1" parent="1">
          <mxGeometry width="50" height="50" relative="1" as="geometry">
            <mxPoint x="330" y="340" as="sourcePoint" />
            <mxPoint x="330" y="220" as="targetPoint" />
          </mxGeometry>
        </mxCell>
        <mxCell id="-UVQ3jbvvW3Y9o4Z8ey6-27" value="" style="endArrow=none;html=1;rounded=0;" edge="1" parent="1">
          <mxGeometry width="50" height="50" relative="1" as="geometry">
            <mxPoint x="715" y="340" as="sourcePoint" />
            <mxPoint x="714.5" y="220" as="targetPoint" />
          </mxGeometry>
        </mxCell>
        <mxCell id="-UVQ3jbvvW3Y9o4Z8ey6-28" value="" style="endArrow=classic;html=1;rounded=0;entryX=1;entryY=0.5;entryDx=0;entryDy=0;" edge="1" parent="1" target="-UVQ3jbvvW3Y9o4Z8ey6-22">
          <mxGeometry width="50" height="50" relative="1" as="geometry">
            <mxPoint x="717.5" y="339.5" as="sourcePoint" />
            <mxPoint x="617.5" y="339.5" as="targetPoint" />
            <Array as="points">
              <mxPoint x="680" y="339.5" />
            </Array>
          </mxGeometry>
        </mxCell>
        <mxCell id="-UVQ3jbvvW3Y9o4Z8ey6-29" value="Selesai" style="ellipse;whiteSpace=wrap;html=1;" vertex="1" parent="1">
          <mxGeometry x="465" y="460" width="120" height="70" as="geometry" />
        </mxCell>
        <mxCell id="-UVQ3jbvvW3Y9o4Z8ey6-31" value="" style="endArrow=none;html=1;rounded=0;" edge="1" parent="1">
          <mxGeometry width="50" height="50" relative="1" as="geometry">
            <mxPoint x="940" y="500" as="sourcePoint" />
            <mxPoint x="937" y="205" as="targetPoint" />
          </mxGeometry>
        </mxCell>
        <mxCell id="-UVQ3jbvvW3Y9o4Z8ey6-32" value="" style="endArrow=classic;html=1;rounded=0;entryX=1;entryY=0.5;entryDx=0;entryDy=0;" edge="1" parent="1">
          <mxGeometry width="50" height="50" relative="1" as="geometry">
            <mxPoint x="940" y="495" as="sourcePoint" />
            <mxPoint x="585" y="495" as="targetPoint" />
            <Array as="points">
              <mxPoint x="657" y="494.5" />
            </Array>
          </mxGeometry>
        </mxCell>
        <mxCell id="-UVQ3jbvvW3Y9o4Z8ey6-34" value="Tidak" style="text;html=1;align=center;verticalAlign=middle;whiteSpace=wrap;rounded=0;" vertex="1" parent="1">
          <mxGeometry x="390" y="155" width="60" height="30" as="geometry" />
        </mxCell>
        <mxCell id="-UVQ3jbvvW3Y9o4Z8ey6-37" value="Tidak" style="text;html=1;align=center;verticalAlign=middle;whiteSpace=wrap;rounded=0;" vertex="1" parent="1">
          <mxGeometry x="585" y="155" width="60" height="30" as="geometry" />
        </mxCell>
        <mxCell id="-UVQ3jbvvW3Y9o4Z8ey6-38" value="Tidak" style="text;html=1;align=center;verticalAlign=middle;whiteSpace=wrap;rounded=0;" vertex="1" parent="1">
          <mxGeometry x="790" y="155" width="60" height="30" as="geometry" />
        </mxCell>
        <mxCell id="-UVQ3jbvvW3Y9o4Z8ey6-39" value="ya" style="text;html=1;align=center;verticalAlign=middle;whiteSpace=wrap;rounded=0;" vertex="1" parent="1">
          <mxGeometry x="310" y="260" width="60" height="30" as="geometry" />
        </mxCell>
        <mxCell id="-UVQ3jbvvW3Y9o4Z8ey6-40" value="ya" style="text;html=1;align=center;verticalAlign=middle;whiteSpace=wrap;rounded=0;" vertex="1" parent="1">
          <mxGeometry x="510" y="240" width="60" height="30" as="geometry" />
        </mxCell>
        <mxCell id="-UVQ3jbvvW3Y9o4Z8ey6-41" value="ya" style="text;html=1;align=center;verticalAlign=middle;whiteSpace=wrap;rounded=0;" vertex="1" parent="1">
          <mxGeometry x="700" y="260" width="60" height="30" as="geometry" />
        </mxCell>
      </root>
    </mxGraphModel>
  </diagram>
</mxfile>
